<svg xmlns="http://www.w3.org/2000/svg" fill="currentColor" viewBox="0 0 195 32"><path d="M194.8 8.55h-5.94v22.94h5.94zM188.87.12h5.94v5.9h-5.94zM32.68 31.56h5.95v-5.87a2.64 2.64 0 0 1 2.65-2.67H56.4a2.64 2.64 0 0 1 2.66 2.63v5.9H65V25.7a8.4 8.4 0 0 0-2.12-5.58A8.56 8.56 0 0 0 65 14.53v-5.9h-5.95v5.9a2.64 2.64 0 0 1-2.65 2.64H41.28c-.36 0-.68.03-1.04.07l-1.6.17V.2h-5.96zM180.18.16h5.95v31.36h-5.95zm-68.95 8.46h22.62v5.9h-23.73c-.71 0-1.32.6-1.32 1.32s.6 1.32 1.32 1.32h17.42a7.28 7.28 0 0 1 7.24 6.86c.04.32.04.64-.04.96a7.26 7.26 0 0 1-7.24 6.58h-24.54v-5.9h24.54c.72 0 1.33-.61 1.33-1.32 0-.71-.6-1.32-1.33-1.32h-17.4a7.28 7.28 0 0 1-7.24-6.86c-.04-.32-.04-.64.04-.96a7.26 7.26 0 0 1 7.23-6.58zm-27.33 17h7.55a2.64 2.64 0 0 0 2.66-2.63V8.62h5.95v14.4a8.6 8.6 0 0 1-8.6 8.54H76.32a8.6 8.6 0 0 1-8.6-8.54V8.62h5.95v14.4a2.64 2.64 0 0 0 2.65 2.63zM29.46 13.14a5.96 5.96 0 0 0-1.76-2.74 7.2 7.2 0 0 0-3.19-1.53c-1.29-.32-2.9-.46-4.76-.46h-18C1.09 8.4.69 8.8.69 9.47v3.42c0 .67.4 1.07 1.08 1.07h17.38a12 12 0 0 1 2.18.17c.54.11.93.32 1.22.57.29.25.5.57.61.96.14.43.18.96.18 1.6v.46H6.73c-1.25 0-2.29.11-3.15.36s-1.57.6-2.11 1.1a4 4 0 0 0-1.15 1.85c-.21.71-.32 1.5-.32 2.38v1.96c0 1.03.1 1.96.32 2.7a4.15 4.15 0 0 0 3.26 3.06c.86.25 1.9.36 3.16.36h19.78a6.3 6.3 0 0 0 1.58-.15c.46-.1.82-.32 1.1-.6s.47-.68.58-1.14.14-1 .14-1.67V17.01c.04-1.49-.14-2.8-.46-3.87zm-6.1 8.85v3.27c0 .57-.1.79-.17.86-.15.14-.47.17-.68.17H8.46c-.76 0-1.3-.14-1.58-.42s-.43-.75-.43-1.39v-.85c0-.57.14-1 .43-1.25.29-.28.82-.42 1.58-.42zm153.56-1.56-8.38-10.56a3.59 3.59 0 0 0-2.83-1.25h-16.77c-1.15 0-2.23.46-2.84 1.25l-8.38 10.56a2.55 2.55 0 0 0 0 3.2l5.98 7.54.9-.54 2.87-1.7c.6-.36 1.18-.71 1.79-1.1l-4.55-5.62 6.13-7.54h13.04v.03l6.13 7.54-4.88 6.01.86.53v.04c1.26.75 2.48 1.5 3.73 2.2V31c.32.18.65.35.97.57l6.3-7.93c.69-.96.69-2.24-.07-3.2z"/><path d="M169.36 31.88a36.75 36.75 0 0 1-6.56-3.1 29.92 29.92 0 0 1-3.83-3.2 1 1 0 0 0-1.22-.25c-.68.18-1.07-.5-1.72-.14-3.08 2.31-6.34 4.8-10.25 6.51a370.8 370.8 0 0 1 23.58.18z"/><path d="M154.38 25.2c1.22-1 1.83-1.36 3.08-.79a2 2 0 0 1 2.23.53 15.4 15.4 0 0 0 3.62 3c2.15-4.17-1.12-9.36-5.85-9.29a6.46 6.46 0 0 0-6.05 8.71c.29-.18 2.44-1.78 2.97-2.17z"/></svg>
